<?xml version="1.0" encoding="UTF-8" standalone="no"?>
<!-- Created with Inkscape (http://www.inkscape.org/) -->

<svg
   width="210mm"
   height="297mm"
   viewBox="0 0 210 297"
   version="1.1"
   id="svg1"
   xml:space="preserve"
   inkscape:version="1.4 (e7c3feb1, 2024-10-09)"
   sodipodi:docname="drawing.svg"
   xmlns:inkscape="http://www.inkscape.org/namespaces/inkscape"
   xmlns:sodipodi="http://sodipodi.sourceforge.net/DTD/sodipodi-0.dtd"
   xmlns:xlink="http://www.w3.org/1999/xlink"
   xmlns="http://www.w3.org/2000/svg"
   xmlns:svg="http://www.w3.org/2000/svg"><sodipodi:namedview
     id="namedview1"
     pagecolor="#505050"
     bordercolor="#eeeeee"
     borderopacity="1"
     inkscape:showpageshadow="0"
     inkscape:pageopacity="0"
     inkscape:pagecheckerboard="0"
     inkscape:deskcolor="#505050"
     inkscape:document-units="mm"
     inkscape:zoom="0.49953305"
     inkscape:cx="-179.16733"
     inkscape:cy="563.52628"
     inkscape:window-width="1920"
     inkscape:window-height="1080"
     inkscape:window-x="1920"
     inkscape:window-y="0"
     inkscape:window-maximized="0"
     inkscape:current-layer="layer1" /><defs
     id="defs1"><linearGradient
       id="linearGradient6"
       inkscape:collect="always"><stop
         style="stop-color:#543015;stop-opacity:1;"
         offset="0"
         id="stop7" /><stop
         style="stop-color:#815a33;stop-opacity:1;"
         offset="0.48202959"
         id="stop12" /><stop
         style="stop-color:#997659;stop-opacity:1;"
         offset="1"
         id="stop8" /></linearGradient><linearGradient
       id="linearGradient5"
       inkscape:collect="always"><stop
         style="stop-color:#a38275;stop-opacity:1;"
         offset="0"
         id="stop5" /><stop
         style="stop-color:#d7ad9b;stop-opacity:1;"
         offset="0.87997854"
         id="stop6" /></linearGradient><radialGradient
       inkscape:collect="always"
       xlink:href="#linearGradient5"
       id="radialGradient6"
       cx="85.969109"
       cy="160.45714"
       fx="85.969109"
       fy="160.45714"
       r="18.696478"
       gradientTransform="matrix(0.45901733,1.0464654,-1.7045475,0.69109657,320.56376,-47.030185)"
       gradientUnits="userSpaceOnUse"
       spreadMethod="pad" /><linearGradient
       inkscape:collect="always"
       xlink:href="#linearGradient6"
       id="linearGradient8"
       x1="85.247345"
       y1="31.20187"
       x2="126.09061"
       y2="166.53033"
       gradientUnits="userSpaceOnUse" /></defs><g
     inkscape:label="Face"
     inkscape:groupmode="layer"
     id="layer1"><path
       id="path16"
       style="fill:#27293c;stroke-width:0.264583;fill-opacity:1"
       d="m 204.71412,163.93005 c 0,0 -20.20014,3.28764 -28.86646,19.59777 -8.66632,16.31013 -11.66303,27.24312 -11.38793,50.58244 0.26401,22.39799 3.60321,59.77984 3.87832,62.76487 l 38.62721,-0.13241 -0.52966,-132.41525 z"
       sodipodi:nodetypes="csscccc" /><path
       style="display:inline;fill:#2c3043;fill-opacity:1;stroke-width:0.264583"
       d="m 74.416922,179.55519 93.220398,-36.81146 37.60595,21.18645 c 0,0 -20.20022,3.28733 -28.86654,19.59746 -8.66632,16.31013 -11.66283,27.24333 -11.38773,50.58265 0.27511,23.33933 3.97246,63.02971 3.97246,63.02971 L 66.472002,296.87517 c 0,0 1.147599,-10.68149 -2.913138,-38.26802 -4.060737,-27.58653 10.858058,-79.05196 10.858058,-79.05196 z"
       id="path14"
       sodipodi:nodetypes="ccczzcczc" /><path
       style="display:inline;fill:url(#linearGradient8);fill-opacity:0.992157;stroke-width:0.264583"
       d="m 83.156826,29.661035 c 0,0 -11.652549,-3.177969 -16.419502,1.853814 -4.76695,5.031782 -9.004241,5.826273 -7.944918,15.88984 1.059322,10.063564 -2.383476,16.154669 -2.383476,16.154669 0,0 -10.063564,24.099589 -5.296614,36.281799 4.766953,12.182213 15.625008,23.569933 10.328397,30.455523 -5.296615,6.8856 -16.15467,12.71187 -17.213993,24.89408 -1.059323,12.18222 -1.853816,25.15892 2.648307,34.16316 4.502121,9.00424 8.73941,19.59747 20.127129,31.25002 11.38772,11.65255 15.095347,12.18221 15.095347,12.18221 v 0 c 0,0 -1.324152,-20.65679 8.474583,-30.45553 9.798734,-9.79873 26.483064,-20.12713 20.921624,-29.3962 -5.56145,-9.26907 -20.127133,-32.04451 -5.29662,-29.92587 14.83052,2.11865 29.92587,-26.21823 39.7246,-16.15467 9.79874,10.06357 -1.05932,25.68858 8.47458,33.10384 9.53391,7.41526 15.36018,11.65255 23.04027,6.88559 7.68009,-4.76695 -0.79449,-21.71611 16.94916,-5.29661 17.74366,16.4195 12.18221,10.59323 12.18221,10.59323 -0.26483,-22.77544 1.05933,-24.36442 -5.29661,-30.72036 -6.35594,-6.35593 -3.70763,-19.8623 -10.3284,-33.10383 C 184.32214,95.074207 176.64205,97.19285 170.55094,81.832674 164.45984,66.472495 162.07636,43.961888 149.62932,32.574171 137.18228,21.186452 119.43863,13.771194 112.55303,15.889839 c -6.8856,2.118646 -21.716114,2.118646 -29.396204,13.771196 z"
       id="path6" /><path
       style="fill:#0e0f1a;fill-opacity:1;stroke-width:0.264583"
       d="m 97.743283,137.0634 c 34.593007,-2.82763 49.966027,-12.92403 49.966027,-12.92403 -8.81453,17.09889 -31.91009,24.30779 -49.966027,12.92403 z"
       id="path13"
       sodipodi:nodetypes="ccc" /><path
       id="path4"
       style="display:inline;fill:url(#radialGradient6);stroke-width:0.279267"
       d="m 73.959663,163.66929 2.023175,6.38731 c 6.354617,1.09809 21.775326,6.83203 32.972032,-6.50653 l 2.44006,-19.49056 c -15.499852,10.1072 -0.54816,-0.0985 -37.435267,19.60978 z"
       transform="matrix(0.96553282,-0.26028128,0.25253203,0.96758855,0,0)"
       sodipodi:nodetypes="ccccc" /><path
       id="path1"
       style="display:inline;fill:#d7ad9b;fill-opacity:1;stroke-width:0.279267"
       transform="matrix(0.96553282,-0.26028128,0.25253203,0.96758855,0,0)"
       d="m 119.28512,109.8286 c 0,13.52567 -5.96085,30.17242 -8.97721,36.27787 -2.5827,5.22767 -23.15077,17.81598 -33.536747,17.81598 -5.192988,0 -8.771596,-2.3219 -12.65008,-7.04797 -5.325239,-6.489 -11.451015,-13.93499 -13.754069,-19.56342 -2.303054,-5.62843 -5.835987,-12.5993 -3.044986,-25.78474 -1.07572,-8.8884 -0.626838,-23.886245 5.952489,-38.870587 2.448021,-5.57534 16.180816,-11.616697 23.519537,-12.025856 10.365255,-0.5779 25.371436,-0.132134 32.177676,8.731644 6.80625,8.863777 10.31339,26.94141 10.31339,40.467079 z"
       sodipodi:nodetypes="sssszcssss" /><path
       style="display:inline;fill:#27293c;fill-opacity:1;stroke-width:0.264583"
       d="m 98.781526,137.35782 c 9.550444,5.10293 19.569044,4.68159 25.748744,3.27711 7.15728,-1.62665 19.94356,-8.70775 22.47162,-15.54287 2.52806,-6.83512 13.67024,22.47162 9.7377,29.96216 -3.93253,7.49055 -28.43747,16.82185 -36.11685,16.44707 -7.67939,-0.37478 -13.88251,-5.96031 -13.88251,-5.96031 0,0 -17.509146,-33.28609 -7.958704,-28.18316 z"
       id="path12"
       sodipodi:nodetypes="zssszcz" /></g></svg>
